<?xml version="1.0" encoding="UTF-8"?><svg id="Layer_1" xmlns="http://www.w3.org/2000/svg" viewBox="0 0 17.02 23.76"><defs><style>.cls-1{fill:#666;}</style></defs><path class="cls-1" d="M7.8,10.32s-.39,.1-.47,.44,0,.78,0,.78c0,0,.31,.57,.38,.69s.78,.71,1.97,.82,2.58,.23,3.49,.18,.65,.85,.65,.85l-1.36,.56s-1.42,.54-2.24,1.69-.88,1.46-.88,1.46c0,0-.2,.76-.08,1.37s.28,.87,.28,.87c0,0,.16,.67,.17,.77s-.01,.44-.01,.44c0,0-.09,.01-.34-.08s-.54-.33-.86-.82-.37-1.59-.37-1.59c0,0-.02-.55,.01-.76s.13-.59,.13-.59c0,0-.31,.32-.53,.44s-.35,.16-.66,.18-.4,0-.4,0l.07,.18c.04,.1,.13,.35,.09,.7s-.25,.91-.82,1.21-1.48,.2-1.94-.06-.97-.6-1.29-.95-.55-.62-.73-1-.26-.85-.29-1.05,.21-.44,.21-.44l.99,1.24s.51,.66,1.07,.9,1.01,.13,1.01,.13c0,0,.38-.08,.51-.32s.02-.53,.02-.53c0,0-.56-1-.8-1.35s-1.48-2.01-2.83-2.48S.09,15.96,.1,16.26s-.03,1.18,.21,2.03,.8,2.06,1.92,3.06,2.29,1.71,3.65,2.02,2.2,.39,4.06,.14,3.39-1.41,4.31-2.22,2.32-3.22,2.47-4.75,.38-2.97-.04-4.25-2.99-1.53-3.81-1.66-1.79-.23-2.71-.32-1.77-.1-2.02-.08-.34,.08-.34,.08Z"/><path class="cls-1" d="M8.56,13.9s.26,.4,.42,.85,0,1.28,0,1.28c0,0,.61-.78,.89-1.01s.94-.72,.94-.72c0,0-1.05-.09-1.2-.12s-1.05-.28-1.05-.28Z"/><path class="cls-1" d="M2.46,11.72s-.04-.44,.34-.8,.44-.51,1-.74,.93-.11,1.3,.27,1.55,2.23,1.55,2.23l.91,1.64,.36,.82s.18,.42,0,.74-.24,.5-.52,.73-.63,.52-1.12,.2-2.2-2.28-2.2-2.28l-.71-.92-.65-1.02s-.3-.56-.26-.86Z"/><path class="cls-1" d="M5.45,9.51l-1.64-4.93-.41-1.62s-.07-1.25,.31-1.96,.63-.84,.98-.89,.86-.06,1.57,.95,1.27,2.2,1.49,2.75,1.28,3.62,1.28,3.62l.65,1.98s-1.94-.15-2.15-.13-.57,.07-.86,.36-.37,.54-.37,.54c0,0-.59-.63-.86-.67Z"/><path class="cls-1" d="M10.16,9.48l1.53-4.18s1.32-2.97,1.99-3.66,.98-.85,1.49-.92,.99,.7,.99,.7c0,0,.29,.51,.31,1.11s-.42,2.29-.42,2.29l-1.75,5.16"/></svg>