<?xml version="1.0" encoding="UTF-8"?><svg id="Layer_1" xmlns="http://www.w3.org/2000/svg" viewBox="0 0 26.88 29"><defs><style>.cls-1{fill:#666;}</style></defs><path class="cls-1" d="M15.73,13.72c-.34-.19-1.02-.34-1.62-.34-1.96,0-3.18,1.51-3.18,3.17,0,1.12,.64,1.77,1.52,1.77,.72,0,1.33-.35,1.75-1.05h.03c.07,.72,.53,1.05,1.17,1.05,1.47,0,2.59-1.25,2.59-3.24,0-2.29-1.71-3.93-4.11-3.93-3.08,0-5.09,2.41-5.09,5.19s1.99,4.29,4.25,4.29c.97,0,1.68-.11,2.49-.49l-.24-.78c-.55,.27-1.28,.42-1.97,.42-2.03,0-3.48-1.29-3.48-3.56,0-2.6,1.82-4.23,3.9-4.23s3.25,1.37,3.25,3.14c0,1.57-.73,2.32-1.32,2.3-.38-.02-.48-.38-.34-1.18l.41-2.52Zm-1.61,2.08c-.12,.79-.65,1.43-1.16,1.43-.45,0-.68-.33-.68-.85,0-1.05,.71-1.93,1.61-1.93,.18,0,.31,.03,.42,.05l-.19,1.29Z"/><path class="cls-1" d="M13.93,24.57c-.15,.14-.34,.21-.53,.21s-.38-.07-.53-.21L.25,12.66V29H26.54V12.5l-12.61,12.07Z"/><path class="cls-1" d="M5.33,9.21H21.46v6.01l3.92-3.75L13.23,0,1.25,11.47l4.08,3.86v-6.12Z"/></svg>