<svg xmlns="http://www.w3.org/2000/svg" id="Layer_1" data-name="Layer 1" viewBox="2.37 2.16 32.37 31.77"><defs><style>.cls-1{fill:#000000;fill-rule:evenodd;}</style></defs><path class="cls-1" d="M18.64,2.16A16.29,16.29,0,0,0,13.5,33.9c.81.15,1.11-.35,1.11-.78s0-1.41,0-2.77c-4.54,1-5.49-2.19-5.49-2.19a4.3,4.3,0,0,0-1.81-2.38c-1.48-1,.11-1,.11-1a3.41,3.41,0,0,1,2.5,1.68,3.46,3.46,0,0,0,4.74,1.35,3.49,3.49,0,0,1,1-2.18c-3.62-.41-7.42-1.8-7.42-8a6.3,6.3,0,0,1,1.68-4.37,5.82,5.82,0,0,1,.16-4.31s1.37-.44,4.48,1.67a15.37,15.37,0,0,1,8.15,0c3.11-2.11,4.48-1.67,4.48-1.67a5.82,5.82,0,0,1,.16,4.31A6.3,6.3,0,0,1,29,17.59c0,6.26-3.8,7.64-7.43,8a3.91,3.91,0,0,1,1.1,3c0,2.18,0,3.93,0,4.47s.3.94,1.12.78A16.29,16.29,0,0,0,18.64,2.16Z"/></svg>