<svg id="Layer_1" data-name="Layer 1" xmlns="http://www.w3.org/2000/svg" viewBox="0 0 121.68 121.68"><path d="M60.84,0a60.84,60.84,0,1,0,60.84,60.84A60.84,60.84,0,0,0,60.84,0ZM40.58,96.52h-17V43.41h17Zm-8.38-60a9.64,9.64,0,1,1,9.64-9.63A9.64,9.64,0,0,1,32.2,36.51Zm69.61,24.43V96.52H85.39s.23-31.78-.59-34.09a8.91,8.91,0,0,0-1.75-3.19c-2.34-2.57-6.63-3.19-10-1.92a9.37,9.37,0,0,0-6,8.43V96.52H50.54V43.41H66.29v7.3h.22A19.31,19.31,0,0,1,88.6,43a18.78,18.78,0,0,1,9.69,6.73A18.56,18.56,0,0,1,101.81,60.94Z"/></svg>