<?xml version="1.0" encoding="UTF-8"?><svg id="Layer_1" xmlns="http://www.w3.org/2000/svg" viewBox="0 0 393.22 513.74"><defs><style>.cls-1{fill:#727272;}</style></defs><path class="cls-1" d="M.82,52.78v464.18H345.69V52.78H.82ZM96.11,439.66h-12.86V183.91h123.22c15,0,28.22,6.05,39.65,18.13,11.43,12.09,17.14,25.86,17.14,41.32,0,19.07-5.54,34.37-16.61,45.9-11.07,11.53-24.47,17.29-40.18,17.29h-74.65v-13.46h74.65c12.26,0,22.65-4.33,31.16-12.99,8.51-8.66,12.77-20.91,12.77-36.74,0-11.84-4.46-22.46-13.39-31.88-8.93-9.41-19.11-14.11-30.54-14.11H96.11v242.29Zm209.83-147.41c-5.83,14.89-13.69,27.27-23.57,37.11-9.88,9.85-21.37,17.48-34.47,22.9-13.1,5.42-26.91,8.13-41.43,8.13h-74.65v-13.46h74.65c12.74,0,24.94-2.65,36.61-7.95,11.67-5.3,21.81-12.46,30.45-21.5,8.63-9.04,15.51-20,20.63-32.9,5.12-12.9,7.68-26.64,7.68-41.22,0-17.45-4.35-33.87-13.04-49.26-8.69-15.39-20.39-27.67-35.09-36.83-14.71-9.16-30.45-13.74-47.23-13.74H44.67V439.66h-12.86V130.07H206.47c19.05,0,36.9,5.21,53.57,15.61,16.67,10.41,29.94,24.34,39.82,41.78,9.88,17.45,14.82,36.08,14.82,55.9,0,17.7-2.92,34-8.75,48.89Z"/><path class="cls-1" d="M354.52,508.47l37.88-42.29V6.36l-37.88,42.29V508.47Z"/><path class="cls-1" d="M45.1-.71L6.31,42.6H348.19L386.98-.71H45.1Z"/></svg>