<?xml version="1.0" encoding="UTF-8"?><svg id="Layer_1" xmlns="http://www.w3.org/2000/svg" viewBox="0 0 393.22 513.74"><defs><style>.cls-1{fill:#727272;}</style></defs><path class="cls-1" d="M355.34,509.18l37.88-42.29V7.07l-37.88,42.29V509.18Z"/><path class="cls-1" d="M45.92,0L7.13,43.32H349.01L387.8,0H45.92Z"/><path class="cls-1" d="M0,50.83v464.18H344.87V50.83H0ZM108.22,411.76h-10.7V198.89h102.57c12.49,0,23.49,5.03,33,15.09,9.51,10.06,14.27,21.53,14.27,34.39,0,15.87-4.61,28.61-13.82,38.2-9.22,9.6-20.36,14.39-33.45,14.39h-62.13v-11.2h62.13c10.21,0,18.85-3.6,25.94-10.82,7.08-7.21,10.63-17.4,10.63-30.58,0-9.85-3.72-18.7-11.15-26.53-7.43-7.83-15.91-11.75-25.42-11.75H108.22v201.67Zm174.66-122.7c-4.86,12.4-11.4,22.7-19.62,30.89-8.23,8.2-17.79,14.55-28.69,19.06-10.9,4.51-22.4,6.77-34.49,6.77h-62.13v-11.2h62.13c10.6,0,20.76-2.2,30.47-6.61,9.71-4.41,18.16-10.37,25.34-17.9,7.18-7.52,12.91-16.65,17.17-27.39,4.26-10.74,6.39-22.17,6.39-34.31,0-14.52-3.62-28.19-10.85-41-7.23-12.81-16.97-23.03-29.21-30.66-12.24-7.62-25.34-11.44-39.32-11.44H65.41v246.49h-10.7V154.07H200.08c15.85,0,30.72,4.33,44.59,12.99,13.87,8.66,24.92,20.26,33.15,34.78,8.23,14.53,12.34,30.03,12.34,46.53,0,14.73-2.43,28.3-7.28,40.69Z"/></svg>