<svg id="Layer_1" data-name="Layer 1" xmlns="http://www.w3.org/2000/svg" viewBox="0 0 122.63 122.43"><path d="M61.32.38a60.84,60.84,0,1,0,60.84,60.84A60.83,60.83,0,0,0,61.32.38Zm44.5,38.22a73,73,0,0,1-6.07,5.3,1.05,1.05,0,0,0-.59.89c0,.3.06,8.15-.28,9.94s-2.34,9.7-3,11.31a72.85,72.85,0,0,1-4.17,8.56c-2.38,4.25-9.19,12.21-11.32,13.79s-8.13,6.17-13.66,8.38a58.44,58.44,0,0,1-18.85,4c-7,.35-16.68-.77-22.6-3.28a68.71,68.71,0,0,1-9.53-4.85l4.73.21a35.12,35.12,0,0,0,9.92-1.25,36.31,36.31,0,0,0,4-1.37,52.59,52.59,0,0,0,10.81-5.9L40,83.75a16,16,0,0,1-6.71-2.91c-4-3-6.73-8.37-6.73-8.37l-.51-1.17,8.11,0-3.45-1.59A36.53,36.53,0,0,1,27,67.51a28.49,28.49,0,0,1-4.13-4.15c-.62-.76-1.66-2.29-2.62-6a21.54,21.54,0,0,1-.89-5.25l1.49.74a23,23,0,0,0,4.83,1.58l2.36.12a18.53,18.53,0,0,1-3.81-3.06,39.16,39.16,0,0,1-4.13-8A17.67,17.67,0,0,1,19.6,36a28.05,28.05,0,0,1,2.54-6.91,47.49,47.49,0,0,0,7.59,7.66c3.64,2.61,4,3.38,9.77,6.19s8.29,4,15.06,5.3,7,.38,7,.38-1.7-6.45.52-11.3a18.46,18.46,0,0,1,9.38-9.76,21.58,21.58,0,0,1,13-1.6,22.21,22.21,0,0,1,8.55,4.34c1,1.09.26,1.91,3.06.83s6.39-2.3,8.37-3.32l1.92-1.14-.13.67a22.48,22.48,0,0,1-1.37,2.75,22,22,0,0,1-3.83,4.74,36.88,36.88,0,0,0-2.93,2.43c-.13.19.87.1.87.1s3.06-.44,4.3-.8a49.54,49.54,0,0,0,5-2l.57-.35a1,1,0,0,1-.26.62A28.64,28.64,0,0,1,105.82,38.6Z"/></svg>